M48
; DRILL file {KiCad 5.1.5+dfsg1-2build2} date pon, 30 lis 2020, 17:08:07
; FORMAT={-:-/ absolute / inch / decimal}
; #@! TF.CreationDate,2020-11-30T17:08:07+01:00
; #@! TF.GenerationSoftware,Kicad,Pcbnew,5.1.5+dfsg1-2build2
; #@! TF.FileFunction,Plated,1,2,PTH
FMAT,2
INCH
T1C0.0299
T2C0.0315
T3C0.0394
T4C0.0400
T5C0.0433
T6C0.0472
T7C0.0598
%
G90
G05
T1
X4.96Y-2.62
X5.01Y-2.52
X5.06Y-2.62
X5.11Y-2.52
X5.16Y-2.62
X5.21Y-2.52
T2
X2.4016Y-1.7323
X2.4016Y-1.9291
X4.0748Y-1.4961
X4.0748Y-1.6929
X4.7094Y-2.0866
X4.9016Y-2.0866
X3.6417Y-1.4961
X3.6417Y-1.6929
X1.9685Y-1.7323
X1.9685Y-1.9291
T3
X6.0236Y-1.5669
X6.0236Y-1.6669
X5.5807Y-2.3425
X5.6807Y-2.3425
X2.874Y-1.9685
X3.3858Y-1.9685
X5.8154Y-2.3425
X5.9154Y-2.3425
X5.8039Y-1.4272
X5.9039Y-1.4272
X6.0039Y-1.4272
T4
X4.6031Y-1.7799
X4.6031Y-1.8799
X4.7031Y-1.7799
X4.7031Y-1.8799
X4.8031Y-1.7799
X4.8031Y-1.8799
T5
X2.5787Y-1.2992
X2.6457Y-1.2992
X2.7126Y-1.2992
X2.7795Y-1.2992
X2.8465Y-1.2992
T6
X2.6378Y-2.126
X2.6378Y-2.726
T7
X1.5236Y-1.5555
X1.5236Y-1.7555
X1.5236Y-1.9555
X1.5236Y-2.1555
T0
M30
